<svg xmlns="http://www.w3.org/2000/svg" width="2000" zoomAndPan="magnify" viewBox="0 0 1500 1499.999933" height="2000" preserveAspectRatio="xMidYMid meet" version="1.0"><title>Anamneo logo - escala de grises</title><desc>Version en escala de grises, optimizada para visibilidad sobre fondos claros y oscuros.</desc><g stroke-linejoin="round" stroke-linecap="round" vector-effect="non-scaling-stroke"><path d="M 354.492188 41.015625 L 763.183594 41.015625 L 779.296875 46.875 L 793.945312 58.59375 L 811.523438 92.285156 L 821.777344 115.722656 L 840.820312 155.273438 L 852.539062 178.710938 L 862.792969 191.894531 L 870.117188 197.753906 L 883.300781 203.613281 L 889.160156 205.078125 L 1344.726562 206.542969 L 1346.191406 210.9375 L 1346.191406 465.820312 L 1344.726562 474.609375 L 556.640625 476.074219 L 556.640625 692.871094 L 543.457031 689.941406 L 500.976562 678.222656 L 465.820312 672.363281 L 449.707031 670.898438 L 380.859375 670.898438 L 339.84375 676.757812 L 304.6875 685.546875 L 304.6875 96.679688 L 309.082031 79.101562 L 317.871094 62.988281 L 329.589844 51.269531 L 348.632812 42.480469 Z M 354.492188 41.015625 " fill="none" stroke="#FFFFFF" stroke-opacity="0.96" stroke-width="28" paint-order="stroke fill markers" fill-rule="nonzero" /><path d="M 354.492188 41.015625 L 763.183594 41.015625 L 779.296875 46.875 L 793.945312 58.59375 L 811.523438 92.285156 L 821.777344 115.722656 L 840.820312 155.273438 L 852.539062 178.710938 L 862.792969 191.894531 L 870.117188 197.753906 L 883.300781 203.613281 L 889.160156 205.078125 L 1344.726562 206.542969 L 1346.191406 210.9375 L 1346.191406 465.820312 L 1344.726562 474.609375 L 556.640625 476.074219 L 556.640625 692.871094 L 543.457031 689.941406 L 500.976562 678.222656 L 465.820312 672.363281 L 449.707031 670.898438 L 380.859375 670.898438 L 339.84375 676.757812 L 304.6875 685.546875 L 304.6875 96.679688 L 309.082031 79.101562 L 317.871094 62.988281 L 329.589844 51.269531 L 348.632812 42.480469 Z M 354.492188 41.015625 " fill="none" stroke="#0F172A" stroke-opacity="0.92" stroke-width="12" paint-order="stroke fill markers" fill-rule="nonzero" /><path d="M 354.492188 41.015625 L 763.183594 41.015625 L 779.296875 46.875 L 793.945312 58.59375 L 811.523438 92.285156 L 821.777344 115.722656 L 840.820312 155.273438 L 852.539062 178.710938 L 862.792969 191.894531 L 870.117188 197.753906 L 883.300781 203.613281 L 889.160156 205.078125 L 1344.726562 206.542969 L 1346.191406 210.9375 L 1346.191406 465.820312 L 1344.726562 474.609375 L 556.640625 476.074219 L 556.640625 692.871094 L 543.457031 689.941406 L 500.976562 678.222656 L 465.820312 672.363281 L 449.707031 670.898438 L 380.859375 670.898438 L 339.84375 676.757812 L 304.6875 685.546875 L 304.6875 96.679688 L 309.082031 79.101562 L 317.871094 62.988281 L 329.589844 51.269531 L 348.632812 42.480469 Z M 354.492188 41.015625 " fill="#1F2937" fill-opacity="1" fill-rule="nonzero" /><path d="M 391.113281 726.5625 L 437.988281 726.5625 L 470.214844 729.492188 L 503.90625 735.351562 L 536.132812 742.675781 L 581.542969 758.789062 L 610.839844 771.972656 L 628.417969 780.761719 L 653.320312 795.410156 L 688.476562 818.847656 L 708.984375 833.496094 L 729.492188 849.609375 L 745.605469 862.792969 L 760.253906 875.976562 L 777.832031 892.089844 L 789.550781 902.34375 L 804.199219 916.992188 L 815.917969 927.246094 L 834.960938 944.824219 L 851.074219 958.007812 L 873.046875 975.585938 L 919.921875 1004.882812 L 956.542969 1022.460938 L 982.910156 1032.714844 L 1007.8125 1040.039062 L 1038.574219 1045.898438 L 1051.757812 1047.363281 L 1104.492188 1047.363281 L 1135.253906 1042.96875 L 1164.550781 1035.644531 L 1190.917969 1025.390625 L 1218.75 1012.207031 L 1246.582031 994.628906 L 1264.160156 981.445312 L 1278.808594 969.726562 L 1284.667969 965.332031 L 1287.597656 965.332031 L 1290.527344 959.472656 L 1305.175781 946.289062 L 1322.753906 930.175781 L 1330.078125 922.851562 L 1335.9375 924.316406 L 1357.910156 944.824219 L 1369.628906 955.078125 L 1388.671875 972.65625 L 1406.25 988.769531 L 1417.96875 999.023438 L 1439.941406 1019.53125 L 1447.265625 1026.855469 L 1444.335938 1032.714844 L 1431.152344 1047.363281 L 1413.574219 1066.40625 L 1394.53125 1083.984375 L 1379.882812 1097.167969 L 1359.375 1113.28125 L 1335.9375 1130.859375 L 1315.429688 1144.042969 L 1293.457031 1157.226562 L 1270.019531 1168.945312 L 1243.652344 1180.664062 L 1214.355469 1190.917969 L 1186.523438 1199.707031 L 1160.15625 1205.566406 L 1120.605469 1211.425781 L 1103.027344 1212.890625 L 1048.828125 1212.890625 L 1009.277344 1208.496094 L 972.65625 1201.171875 L 949.21875 1195.3125 L 937.5 1190.917969 L 908.203125 1180.664062 L 883.300781 1170.410156 L 851.074219 1154.296875 L 824.707031 1139.648438 L 789.550781 1116.210938 L 761.71875 1095.703125 L 735.351562 1075.195312 L 720.703125 1062.011719 L 704.589844 1048.828125 L 679.6875 1025.390625 L 667.96875 1015.136719 L 647.460938 996.09375 L 631.347656 982.910156 L 606.445312 962.402344 L 583.007812 946.289062 L 562.5 933.105469 L 531.738281 916.992188 L 502.441406 905.273438 L 471.679688 896.484375 L 442.382812 892.089844 L 408.691406 890.625 L 379.394531 892.089844 L 350.097656 896.484375 L 319.335938 905.273438 L 297.363281 914.0625 L 265.136719 931.640625 L 246.09375 944.824219 L 227.050781 959.472656 L 218.261719 966.796875 L 215.332031 966.796875 L 215.332031 969.726562 L 203.613281 979.980469 L 193.359375 990.234375 L 181.640625 1000.488281 L 172.851562 1010.742188 L 168.457031 1012.207031 L 143.554688 988.769531 L 96.679688 944.824219 L 77.636719 927.246094 L 60.058594 911.132812 L 52.734375 903.808594 L 55.664062 897.949219 L 77.636719 874.511719 L 96.679688 855.46875 L 108.398438 845.214844 L 128.90625 827.636719 L 155.273438 808.59375 L 177.246094 793.945312 L 209.472656 776.367188 L 232.910156 764.648438 L 262.207031 752.929688 L 290.039062 744.140625 L 303.222656 739.746094 L 338.378906 732.421875 L 372.070312 728.027344 Z M 391.113281 726.5625 " fill="none" stroke="#FFFFFF" stroke-opacity="0.96" stroke-width="28" paint-order="stroke fill markers" fill-rule="nonzero" /><path d="M 391.113281 726.5625 L 437.988281 726.5625 L 470.214844 729.492188 L 503.90625 735.351562 L 536.132812 742.675781 L 581.542969 758.789062 L 610.839844 771.972656 L 628.417969 780.761719 L 653.320312 795.410156 L 688.476562 818.847656 L 708.984375 833.496094 L 729.492188 849.609375 L 745.605469 862.792969 L 760.253906 875.976562 L 777.832031 892.089844 L 789.550781 902.34375 L 804.199219 916.992188 L 815.917969 927.246094 L 834.960938 944.824219 L 851.074219 958.007812 L 873.046875 975.585938 L 919.921875 1004.882812 L 956.542969 1022.460938 L 982.910156 1032.714844 L 1007.8125 1040.039062 L 1038.574219 1045.898438 L 1051.757812 1047.363281 L 1104.492188 1047.363281 L 1135.253906 1042.96875 L 1164.550781 1035.644531 L 1190.917969 1025.390625 L 1218.75 1012.207031 L 1246.582031 994.628906 L 1264.160156 981.445312 L 1278.808594 969.726562 L 1284.667969 965.332031 L 1287.597656 965.332031 L 1290.527344 959.472656 L 1305.175781 946.289062 L 1322.753906 930.175781 L 1330.078125 922.851562 L 1335.9375 924.316406 L 1357.910156 944.824219 L 1369.628906 955.078125 L 1388.671875 972.65625 L 1406.25 988.769531 L 1417.96875 999.023438 L 1439.941406 1019.53125 L 1447.265625 1026.855469 L 1444.335938 1032.714844 L 1431.152344 1047.363281 L 1413.574219 1066.40625 L 1394.53125 1083.984375 L 1379.882812 1097.167969 L 1359.375 1113.28125 L 1335.9375 1130.859375 L 1315.429688 1144.042969 L 1293.457031 1157.226562 L 1270.019531 1168.945312 L 1243.652344 1180.664062 L 1214.355469 1190.917969 L 1186.523438 1199.707031 L 1160.15625 1205.566406 L 1120.605469 1211.425781 L 1103.027344 1212.890625 L 1048.828125 1212.890625 L 1009.277344 1208.496094 L 972.65625 1201.171875 L 949.21875 1195.3125 L 937.5 1190.917969 L 908.203125 1180.664062 L 883.300781 1170.410156 L 851.074219 1154.296875 L 824.707031 1139.648438 L 789.550781 1116.210938 L 761.71875 1095.703125 L 735.351562 1075.195312 L 720.703125 1062.011719 L 704.589844 1048.828125 L 679.6875 1025.390625 L 667.96875 1015.136719 L 647.460938 996.09375 L 631.347656 982.910156 L 606.445312 962.402344 L 583.007812 946.289062 L 562.5 933.105469 L 531.738281 916.992188 L 502.441406 905.273438 L 471.679688 896.484375 L 442.382812 892.089844 L 408.691406 890.625 L 379.394531 892.089844 L 350.097656 896.484375 L 319.335938 905.273438 L 297.363281 914.0625 L 265.136719 931.640625 L 246.09375 944.824219 L 227.050781 959.472656 L 218.261719 966.796875 L 215.332031 966.796875 L 215.332031 969.726562 L 203.613281 979.980469 L 193.359375 990.234375 L 181.640625 1000.488281 L 172.851562 1010.742188 L 168.457031 1012.207031 L 143.554688 988.769531 L 96.679688 944.824219 L 77.636719 927.246094 L 60.058594 911.132812 L 52.734375 903.808594 L 55.664062 897.949219 L 77.636719 874.511719 L 96.679688 855.46875 L 108.398438 845.214844 L 128.90625 827.636719 L 155.273438 808.59375 L 177.246094 793.945312 L 209.472656 776.367188 L 232.910156 764.648438 L 262.207031 752.929688 L 290.039062 744.140625 L 303.222656 739.746094 L 338.378906 732.421875 L 372.070312 728.027344 Z M 391.113281 726.5625 " fill="none" stroke="#0F172A" stroke-opacity="0.92" stroke-width="12" paint-order="stroke fill markers" fill-rule="nonzero" /><path d="M 391.113281 726.5625 L 437.988281 726.5625 L 470.214844 729.492188 L 503.90625 735.351562 L 536.132812 742.675781 L 581.542969 758.789062 L 610.839844 771.972656 L 628.417969 780.761719 L 653.320312 795.410156 L 688.476562 818.847656 L 708.984375 833.496094 L 729.492188 849.609375 L 745.605469 862.792969 L 760.253906 875.976562 L 777.832031 892.089844 L 789.550781 902.34375 L 804.199219 916.992188 L 815.917969 927.246094 L 834.960938 944.824219 L 851.074219 958.007812 L 873.046875 975.585938 L 919.921875 1004.882812 L 956.542969 1022.460938 L 982.910156 1032.714844 L 1007.8125 1040.039062 L 1038.574219 1045.898438 L 1051.757812 1047.363281 L 1104.492188 1047.363281 L 1135.253906 1042.96875 L 1164.550781 1035.644531 L 1190.917969 1025.390625 L 1218.75 1012.207031 L 1246.582031 994.628906 L 1264.160156 981.445312 L 1278.808594 969.726562 L 1284.667969 965.332031 L 1287.597656 965.332031 L 1290.527344 959.472656 L 1305.175781 946.289062 L 1322.753906 930.175781 L 1330.078125 922.851562 L 1335.9375 924.316406 L 1357.910156 944.824219 L 1369.628906 955.078125 L 1388.671875 972.65625 L 1406.25 988.769531 L 1417.96875 999.023438 L 1439.941406 1019.53125 L 1447.265625 1026.855469 L 1444.335938 1032.714844 L 1431.152344 1047.363281 L 1413.574219 1066.40625 L 1394.53125 1083.984375 L 1379.882812 1097.167969 L 1359.375 1113.28125 L 1335.9375 1130.859375 L 1315.429688 1144.042969 L 1293.457031 1157.226562 L 1270.019531 1168.945312 L 1243.652344 1180.664062 L 1214.355469 1190.917969 L 1186.523438 1199.707031 L 1160.15625 1205.566406 L 1120.605469 1211.425781 L 1103.027344 1212.890625 L 1048.828125 1212.890625 L 1009.277344 1208.496094 L 972.65625 1201.171875 L 949.21875 1195.3125 L 937.5 1190.917969 L 908.203125 1180.664062 L 883.300781 1170.410156 L 851.074219 1154.296875 L 824.707031 1139.648438 L 789.550781 1116.210938 L 761.71875 1095.703125 L 735.351562 1075.195312 L 720.703125 1062.011719 L 704.589844 1048.828125 L 679.6875 1025.390625 L 667.96875 1015.136719 L 647.460938 996.09375 L 631.347656 982.910156 L 606.445312 962.402344 L 583.007812 946.289062 L 562.5 933.105469 L 531.738281 916.992188 L 502.441406 905.273438 L 471.679688 896.484375 L 442.382812 892.089844 L 408.691406 890.625 L 379.394531 892.089844 L 350.097656 896.484375 L 319.335938 905.273438 L 297.363281 914.0625 L 265.136719 931.640625 L 246.09375 944.824219 L 227.050781 959.472656 L 218.261719 966.796875 L 215.332031 966.796875 L 215.332031 969.726562 L 203.613281 979.980469 L 193.359375 990.234375 L 181.640625 1000.488281 L 172.851562 1010.742188 L 168.457031 1012.207031 L 143.554688 988.769531 L 96.679688 944.824219 L 77.636719 927.246094 L 60.058594 911.132812 L 52.734375 903.808594 L 55.664062 897.949219 L 77.636719 874.511719 L 96.679688 855.46875 L 108.398438 845.214844 L 128.90625 827.636719 L 155.273438 808.59375 L 177.246094 793.945312 L 209.472656 776.367188 L 232.910156 764.648438 L 262.207031 752.929688 L 290.039062 744.140625 L 303.222656 739.746094 L 338.378906 732.421875 L 372.070312 728.027344 Z M 391.113281 726.5625 " fill="#D1D5DB" fill-opacity="1" fill-rule="nonzero" /><path d="M 398.4375 947.753906 L 423.339844 947.753906 L 452.636719 950.683594 L 484.863281 958.007812 L 514.160156 969.726562 L 543.457031 984.375 L 555.175781 993.164062 L 556.640625 996.09375 L 556.640625 1478.027344 L 304.6875 1478.027344 L 304.6875 972.65625 L 328.125 962.402344 L 350.097656 955.078125 L 372.070312 950.683594 Z M 398.4375 947.753906 " fill="none" stroke="#FFFFFF" stroke-opacity="0.96" stroke-width="28" paint-order="stroke fill markers" fill-rule="nonzero" /><path d="M 398.4375 947.753906 L 423.339844 947.753906 L 452.636719 950.683594 L 484.863281 958.007812 L 514.160156 969.726562 L 543.457031 984.375 L 555.175781 993.164062 L 556.640625 996.09375 L 556.640625 1478.027344 L 304.6875 1478.027344 L 304.6875 972.65625 L 328.125 962.402344 L 350.097656 955.078125 L 372.070312 950.683594 Z M 398.4375 947.753906 " fill="none" stroke="#0F172A" stroke-opacity="0.92" stroke-width="12" paint-order="stroke fill markers" fill-rule="nonzero" /><path d="M 398.4375 947.753906 L 423.339844 947.753906 L 452.636719 950.683594 L 484.863281 958.007812 L 514.160156 969.726562 L 543.457031 984.375 L 555.175781 993.164062 L 556.640625 996.09375 L 556.640625 1478.027344 L 304.6875 1478.027344 L 304.6875 972.65625 L 328.125 962.402344 L 350.097656 955.078125 L 372.070312 950.683594 Z M 398.4375 947.753906 " fill="#111827" fill-opacity="1" fill-rule="nonzero" /><path d="M 1066.40625 628.417969 L 1081.054688 628.417969 L 1105.957031 631.347656 L 1129.394531 638.671875 L 1152.832031 650.390625 L 1166.015625 659.179688 L 1185.058594 675.292969 L 1195.3125 687.011719 L 1205.566406 701.660156 L 1217.285156 726.5625 L 1226.074219 757.324219 L 1227.539062 785.15625 L 1224.609375 814.453125 L 1217.285156 837.890625 L 1211.425781 852.539062 L 1196.777344 875.976562 L 1176.269531 897.949219 L 1158.691406 911.132812 L 1144.042969 919.921875 L 1127.929688 927.246094 L 1101.5625 934.570312 L 1091.308594 936.035156 L 1051.757812 936.035156 L 1019.53125 928.710938 L 996.09375 916.992188 L 978.515625 905.273438 L 960.9375 889.160156 L 949.21875 875.976562 L 937.5 856.933594 L 925.78125 833.496094 L 919.921875 810.058594 L 918.457031 799.804688 L 918.457031 767.578125 L 924.316406 738.28125 L 931.640625 719.238281 L 944.824219 695.800781 L 956.542969 681.152344 L 975.585938 662.109375 L 990.234375 651.855469 L 1006.347656 643.066406 L 1023.925781 635.742188 L 1050.292969 629.882812 Z M 1066.40625 628.417969 " fill="none" stroke="#FFFFFF" stroke-opacity="0.96" stroke-width="28" paint-order="stroke fill markers" fill-rule="nonzero" /><path d="M 1066.40625 628.417969 L 1081.054688 628.417969 L 1105.957031 631.347656 L 1129.394531 638.671875 L 1152.832031 650.390625 L 1166.015625 659.179688 L 1185.058594 675.292969 L 1195.3125 687.011719 L 1205.566406 701.660156 L 1217.285156 726.5625 L 1226.074219 757.324219 L 1227.539062 785.15625 L 1224.609375 814.453125 L 1217.285156 837.890625 L 1211.425781 852.539062 L 1196.777344 875.976562 L 1176.269531 897.949219 L 1158.691406 911.132812 L 1144.042969 919.921875 L 1127.929688 927.246094 L 1101.5625 934.570312 L 1091.308594 936.035156 L 1051.757812 936.035156 L 1019.53125 928.710938 L 996.09375 916.992188 L 978.515625 905.273438 L 960.9375 889.160156 L 949.21875 875.976562 L 937.5 856.933594 L 925.78125 833.496094 L 919.921875 810.058594 L 918.457031 799.804688 L 918.457031 767.578125 L 924.316406 738.28125 L 931.640625 719.238281 L 944.824219 695.800781 L 956.542969 681.152344 L 975.585938 662.109375 L 990.234375 651.855469 L 1006.347656 643.066406 L 1023.925781 635.742188 L 1050.292969 629.882812 Z M 1066.40625 628.417969 " fill="none" stroke="#0F172A" stroke-opacity="0.92" stroke-width="12" paint-order="stroke fill markers" fill-rule="nonzero" /><path d="M 1066.40625 628.417969 L 1081.054688 628.417969 L 1105.957031 631.347656 L 1129.394531 638.671875 L 1152.832031 650.390625 L 1166.015625 659.179688 L 1185.058594 675.292969 L 1195.3125 687.011719 L 1205.566406 701.660156 L 1217.285156 726.5625 L 1226.074219 757.324219 L 1227.539062 785.15625 L 1224.609375 814.453125 L 1217.285156 837.890625 L 1211.425781 852.539062 L 1196.777344 875.976562 L 1176.269531 897.949219 L 1158.691406 911.132812 L 1144.042969 919.921875 L 1127.929688 927.246094 L 1101.5625 934.570312 L 1091.308594 936.035156 L 1051.757812 936.035156 L 1019.53125 928.710938 L 996.09375 916.992188 L 978.515625 905.273438 L 960.9375 889.160156 L 949.21875 875.976562 L 937.5 856.933594 L 925.78125 833.496094 L 919.921875 810.058594 L 918.457031 799.804688 L 918.457031 767.578125 L 924.316406 738.28125 L 931.640625 719.238281 L 944.824219 695.800781 L 956.542969 681.152344 L 975.585938 662.109375 L 990.234375 651.855469 L 1006.347656 643.066406 L 1023.925781 635.742188 L 1050.292969 629.882812 Z M 1066.40625 628.417969 " fill="#9CA3AF" fill-opacity="1" fill-rule="nonzero" /></g></svg>