<?xml version="1.0" ?>
<svg xmlns="http://www.w3.org/2000/svg" version="1.1" width="1254" height="1254">
	<g stroke-linecap="butt" vector-effect="non-scaling-stroke" fill="none"/>
	<path fill="#EBEBE927" d="M 948.00,568.00 L 948.00,568.50 C 948.00,568.77 947.77,569.00 947.50,569.00 L 947.00,569.00 L 844.00,466.00 C 779.67,401.67 738.18,360.94 733.50,357.50 C 722.69,349.57 710.14,342.43 701.00,339.00 C 675.25,329.34 670.23,328.91 591.50,329.50 C 530.65,329.96 524.07,330.17 514.00,332.00 C 481.64,337.88 453.19,349.49 427.00,367.50 L 419.00,373.00 L 419.00,372.00 C 419.00,371.45 419.45,370.77 420.00,370.50 C 420.55,370.23 423.02,368.43 425.50,366.50 C 427.98,364.57 432.48,361.65 435.50,360.00 C 438.52,358.35 442.12,356.10 443.50,355.00 C 444.88,353.90 447.57,352.55 449.50,352.00 C 451.43,351.45 453.45,350.32 454.00,349.50 C 454.55,348.68 457.02,347.55 459.50,347.00 C 461.98,346.45 464.45,345.32 465.00,344.50 C 465.55,343.68 468.02,342.55 470.50,342.00 C 472.98,341.45 476.12,340.32 477.50,339.50 C 478.88,338.68 483.60,337.10 488.00,336.00 C 492.40,334.90 496.68,333.55 497.50,333.00 C 498.32,332.45 503.05,331.55 508.00,331.00 C 512.95,330.45 517.00,329.55 517.00,329.00 C 517.00,328.45 519.25,328.00 522.00,328.00 C 524.75,328.00 559.17,327.77 598.50,327.50 C 660.88,327.06 670.32,327.19 672.50,328.50 C 673.88,329.32 678.60,330.45 683.00,331.00 C 687.57,331.57 691.64,332.64 692.50,333.50 C 693.33,334.32 696.48,335.68 699.50,336.50 C 702.52,337.32 705.45,338.45 706.00,339.00 C 706.55,339.55 708.80,340.68 711.00,341.50 C 713.20,342.32 716.58,344.12 718.50,345.50 C 720.42,346.88 722.67,348.00 723.50,348.00 C 724.33,348.00 725.00,348.45 725.00,349.00 C 725.00,349.55 726.35,350.68 728.00,351.50 C 731.32,353.16 740.42,360.68 751.00,370.50 C 754.85,374.07 758.45,377.00 759.00,377.00 C 759.55,377.00 760.00,377.45 760.00,378.00 C 760.00,378.55 762.70,381.70 766.00,385.00 C 769.30,388.30 772.45,391.00 773.00,391.00 C 773.55,391.00 774.45,392.12 775.00,393.50 C 775.55,394.88 776.67,396.00 777.50,396.00 C 778.33,396.00 779.45,397.12 780.00,398.50 C 780.55,399.88 781.67,401.00 782.50,401.00 C 783.33,401.00 784.67,402.35 785.50,404.00 C 786.50,406.00 787.33,406.67 788.00,406.00 C 788.67,405.33 789.17,405.67 789.50,407.00 C 789.77,408.10 793.60,412.60 798.00,417.00 C 802.40,421.40 806.45,425.00 807.00,425.00 C 807.55,425.00 808.23,425.90 808.50,427.00 C 808.77,428.10 810.12,429.45 811.50,430.00 C 812.88,430.55 814.00,431.45 814.00,432.00 C 814.00,432.55 815.12,433.68 816.50,434.50 C 817.88,435.32 819.23,436.90 819.50,438.00 C 819.77,439.10 820.67,440.00 821.50,440.00 C 822.33,440.00 823.45,441.12 824.00,442.50 C 824.55,443.88 825.45,445.00 826.00,445.00 C 826.55,445.00 852.42,470.43 883.50,501.50 C 914.58,532.58 941.80,560.25 944.00,563.00 L 948.00,568.00 Z" fill-rule="evenodd"/>
	<path fill="#EBEBE927" d="M 514.00,328.50 C 514.00,328.23 514.23,328.23 514.50,328.50 C 514.77,328.77 514.77,329.00 514.50,329.00 C 514.23,329.00 514.00,328.77 514.00,328.50 Z" fill-rule="evenodd"/>
	<path fill="#EBEBE927" d="M 674.00,328.50 C 674.00,328.23 674.23,328.23 674.50,328.50 C 674.77,328.77 674.77,329.00 674.50,329.00 C 674.23,329.00 674.00,328.77 674.00,328.50 Z" fill-rule="evenodd"/>
	<path fill="#393939" d="M 947.00,569.00 L 953.50,578.50 C 961.81,590.64 967.14,602.04 971.50,617.00 C 976.81,635.20 977.06,641.50 976.50,743.50 C 976.08,819.66 975.75,836.17 974.50,842.00 C 971.93,853.97 967.16,867.70 962.50,876.50 L 958.00,885.00 L 957.50,885.00 C 957.23,885.00 957.00,885.23 957.00,885.50 L 957.00,886.00 L 955.00,889.00 C 953.90,890.65 952.55,892.67 952.00,893.50 L 951.00,895.00 L 950.50,895.00 C 950.23,895.00 950.00,895.23 950.00,895.50 L 950.00,896.00 L 942.50,903.50 C 930.31,915.69 916.00,923.75 899.00,928.00 L 891.00,930.00 L 890.50,930.00 C 890.23,930.00 890.00,930.23 890.00,930.50 L 890.00,931.00 L 880.50,931.50 C 875.27,931.77 869.65,932.23 868.00,932.50 C 866.35,932.77 858.48,932.55 850.50,932.00 L 836.00,931.00 L 836.00,930.50 C 836.00,930.23 835.77,930.00 835.50,930.00 L 835.00,930.00 L 833.00,930.00 C 831.90,930.00 830.77,930.00 830.50,930.00 L 830.00,930.00 L 830.00,929.50 C 830.00,929.23 829.55,929.00 829.00,929.00 L 828.00,929.00 L 820.50,927.50 C 808.84,925.17 795.22,920.47 777.00,912.50 L 769.00,909.00 L 769.00,908.50 C 769.00,908.23 768.77,908.00 768.50,908.00 L 768.00,908.00 L 767.50,907.50 C 767.23,907.23 766.55,907.00 766.00,907.00 L 765.00,907.00 L 765.00,906.50 C 765.00,906.23 764.77,906.00 764.50,906.00 L 764.00,906.00 L 762.00,905.00 C 760.90,904.45 759.55,903.77 759.00,903.50 L 758.00,903.00 L 758.00,902.50 C 758.00,902.23 757.77,902.00 757.50,902.00 L 757.00,902.00 L 755.00,901.00 C 753.90,900.45 752.10,899.55 751.00,899.00 L 749.00,898.00 L 749.00,897.50 C 749.00,897.23 748.77,897.00 748.50,897.00 L 748.00,897.00 L 745.50,895.50 C 744.12,894.67 742.33,893.55 741.50,893.00 L 740.00,892.00 L 740.00,891.50 C 740.00,891.23 739.77,891.00 739.50,891.00 L 739.00,891.00 L 737.50,890.00 C 736.67,889.45 735.55,888.77 735.00,888.50 L 734.00,888.00 L 734.00,887.50 C 734.00,887.23 733.77,887.00 733.50,887.00 L 733.00,887.00 L 732.50,886.50 C 732.23,886.23 731.77,886.00 731.50,886.00 L 731.00,886.00 L 730.50,885.00 C 730.23,884.45 729.77,884.00 729.50,884.00 L 729.00,884.00 L 727.50,883.00 C 726.67,882.45 725.33,881.55 724.50,881.00 L 723.00,880.00 L 723.00,879.50 C 723.00,879.23 722.77,879.00 722.50,879.00 L 722.00,879.00 L 721.50,879.00 C 721.23,879.00 720.55,878.55 720.00,878.00 L 719.00,877.00 L 719.00,876.50 C 719.00,876.23 718.77,876.00 718.50,876.00 L 718.00,876.00 L 717.50,876.00 C 717.23,876.00 716.55,875.55 716.00,875.00 L 715.00,874.00 L 715.00,873.50 C 715.00,873.23 714.77,873.00 714.50,873.00 L 714.00,873.00 L 714.00,872.50 C 714.00,872.23 713.33,871.77 712.50,871.50 L 711.00,871.00 L 711.00,870.50 C 711.00,870.23 710.77,870.00 710.50,870.00 L 710.00,870.00 L 704.50,865.50 C 701.48,863.02 698.33,860.55 697.50,860.00 L 696.00,859.00 L 695.50,858.00 C 695.23,857.45 694.77,857.00 694.50,857.00 L 694.00,857.00 L 693.50,856.50 C 693.23,856.23 692.33,855.55 691.50,855.00 L 690.00,854.00 L 689.50,853.00 C 689.23,852.45 688.77,852.00 688.50,852.00 L 688.00,852.00 L 686.50,851.00 C 685.67,850.45 684.10,849.33 683.00,848.50 L 681.00,847.00 L 681.00,846.50 C 681.00,846.23 680.77,846.00 680.50,846.00 L 680.00,846.00 L 679.50,845.50 C 679.23,845.23 678.33,844.55 677.50,844.00 L 676.00,843.00 L 676.00,842.50 C 676.00,842.23 675.77,842.00 675.50,842.00 L 675.00,842.00 L 673.00,840.50 C 671.90,839.67 670.55,838.77 670.00,838.50 L 669.00,838.00 L 669.00,837.50 C 669.00,837.23 668.77,837.00 668.50,837.00 L 668.00,837.00 L 662.00,833.00 C 658.70,830.80 655.10,828.55 654.00,828.00 L 652.00,827.00 L 652.00,826.50 C 652.00,826.23 651.77,826.00 651.50,826.00 L 651.00,826.00 L 642.00,821.50 C 630.59,815.79 621.80,812.13 618.00,811.50 L 615.00,811.00 L 615.00,810.50 C 615.00,810.23 614.55,810.00 614.00,810.00 L 613.00,810.00 L 613.00,809.50 C 613.00,809.23 612.33,809.00 611.50,809.00 L 610.00,809.00 L 609.00,809.00 L 609.00,808.50 C 609.00,808.23 608.33,808.00 607.50,808.00 L 606.00,808.00 L 600.00,806.50 C 596.70,805.67 593.10,805.00 592.00,805.00 L 590.00,805.00 L 590.00,804.50 C 590.00,804.23 589.55,804.00 589.00,804.00 L 588.00,804.00 L 585.50,804.00 C 584.12,804.00 582.77,804.00 582.50,804.00 L 582.00,804.00 L 574.00,803.00 C 569.60,802.45 562.62,802.23 558.50,802.50 L 551.00,803.00 L 549.50,803.00 C 548.67,803.00 548.00,803.23 548.00,803.50 L 548.00,804.00 L 544.50,804.00 C 542.58,804.00 540.77,804.00 540.50,804.00 L 540.00,804.00 L 539.50,804.00 C 539.23,804.00 539.00,804.23 539.00,804.50 L 539.00,805.00 L 530.50,806.00 C 525.83,806.55 516.38,808.58 509.50,810.50 L 497.00,814.00 L 496.00,814.00 L 494.00,815.00 C 492.90,815.55 487.95,816.90 483.00,818.00 L 474.00,820.00 L 473.50,820.00 C 473.23,820.00 473.00,820.23 473.00,820.50 L 473.00,821.00 L 461.00,822.00 C 453.00,822.67 445.50,822.67 438.50,822.00 L 428.00,821.00 L 428.00,820.50 C 428.00,820.23 426.88,819.77 425.50,819.50 L 423.00,819.00 L 416.50,817.50 C 408.45,815.64 393.07,808.43 384.50,802.50 L 378.00,798.00 L 378.00,797.50 C 378.00,797.23 377.77,797.00 377.50,797.00 L 377.00,797.00 L 376.00,796.00 C 375.45,795.45 374.77,795.00 374.50,795.00 L 374.00,795.00 L 373.50,794.00 C 373.23,793.45 372.77,793.00 372.50,793.00 L 372.00,793.00 L 370.00,791.00 C 368.90,789.90 367.10,788.10 366.00,787.00 L 364.00,785.00 L 363.50,784.00 C 363.23,783.45 362.77,783.00 362.50,783.00 L 362.00,783.00 L 361.50,782.50 C 361.23,782.23 360.55,781.33 360.00,780.50 L 359.00,779.00 L 359.00,778.50 C 359.00,778.23 358.77,778.00 358.50,778.00 L 358.00,778.00 L 356.00,775.00 C 354.90,773.35 353.55,771.33 353.00,770.50 L 352.00,769.00 L 352.00,768.50 C 352.00,768.23 351.77,768.00 351.50,768.00 L 351.00,768.00 L 350.00,766.00 C 349.45,764.90 348.77,763.77 348.50,763.50 L 348.00,763.00 L 348.00,762.00 C 348.00,761.45 347.77,761.00 347.50,761.00 L 347.00,761.00 L 343.50,753.50 C 341.57,749.38 339.10,742.40 338.00,738.00 L 336.00,730.00 L 336.00,729.50 C 336.00,729.23 335.77,729.00 335.50,729.00 L 335.00,729.00 L 334.00,721.50 C 333.41,717.04 333.00,682.00 333.00,635.00 L 333.00,556.00 L 333.00,553.50 C 333.00,552.12 333.00,550.77 333.00,550.50 L 333.00,550.00 L 333.50,533.50 C 333.77,524.42 334.45,515.20 335.00,513.00 L 336.00,509.00 L 336.00,508.50 C 336.00,508.23 336.00,507.55 336.00,507.00 L 336.00,506.00 L 338.00,497.50 C 342.99,476.28 351.31,455.90 363.50,435.00 L 367.00,429.00 L 367.50,429.00 C 367.77,429.00 368.00,428.77 368.00,428.50 L 368.00,428.00 L 376.00,417.00 C 385.59,403.81 398.03,390.45 409.50,381.00 L 418.00,374.00 L 418.50,374.00 C 418.77,374.00 419.00,373.77 419.00,373.50 L 419.00,373.00 L 427.00,367.50 C 453.19,349.49 481.64,337.88 514.00,332.00 C 524.07,330.17 530.65,329.96 591.50,329.50 C 670.23,328.91 675.25,329.34 701.00,339.00 C 710.14,342.43 722.69,349.57 733.50,357.50 C 738.18,360.94 779.67,401.67 844.00,466.00 L 947.00,569.00 Z M 510.00,417.00 L 509.50,417.00 C 509.23,417.00 509.00,417.23 509.00,417.50 L 509.00,418.00 L 508.00,418.00 C 507.45,418.00 504.52,418.90 501.50,420.00 L 496.00,422.00 L 495.50,422.00 C 495.23,422.00 495.00,422.23 495.00,422.50 L 495.00,423.00 L 492.50,424.00 C 491.12,424.55 487.30,426.57 484.00,428.50 L 478.00,432.00 L 477.50,432.00 C 477.23,432.00 477.00,432.23 477.00,432.50 L 477.00,433.00 L 476.50,433.00 C 476.23,433.00 472.85,435.48 469.00,438.50 L 462.00,444.00 L 461.00,444.50 C 460.45,444.77 460.00,445.23 460.00,445.50 L 460.00,446.00 L 456.00,449.50 C 453.80,451.43 452.00,453.23 452.00,453.50 L 452.00,454.00 L 446.00,461.00 C 442.70,464.85 440.00,468.23 440.00,468.50 L 440.00,469.00 L 439.50,469.00 C 439.23,469.00 439.00,469.23 439.00,469.50 L 439.00,470.00 L 437.00,473.00 C 435.90,474.65 435.00,476.23 435.00,476.50 L 435.00,477.00 L 431.00,483.50 C 425.23,492.87 420.35,506.26 417.50,520.50 L 415.00,533.00 L 415.00,619.00 C 415.00,674.33 415.36,705.71 416.00,707.00 L 417.00,709.00 L 418.00,713.00 C 421.82,728.29 438.96,740.00 457.50,740.00 C 463.94,740.00 468.54,739.27 476.50,737.00 C 515.33,725.91 527.86,724.00 562.00,724.00 C 603.65,724.00 634.11,731.29 668.50,749.50 C 689.26,760.49 698.89,767.45 746.00,805.50 C 813.12,859.71 881.15,874.76 902.00,840.00 C 903.65,837.25 906.12,832.08 907.50,828.50 L 910.00,822.00 L 910.50,771.00 C 911.11,709.27 910.59,704.88 901.00,690.50 L 898.00,686.00 L 898.00,685.50 C 898.00,685.23 897.77,685.00 897.50,685.00 L 897.00,685.00 L 897.00,684.50 C 897.00,684.23 896.33,683.55 895.50,683.00 L 894.00,682.00 L 893.50,681.00 C 893.23,680.45 892.77,680.00 892.50,680.00 L 892.00,680.00 L 891.50,679.00 C 891.23,678.45 890.77,678.00 890.50,678.00 L 890.00,678.00 L 885.50,675.00 C 876.93,669.29 865.62,665.07 856.00,664.00 L 847.00,663.00 L 842.00,662.50 C 839.25,662.23 825.75,661.77 812.00,661.50 L 787.00,661.00 L 786.50,661.00 C 786.23,661.00 785.77,661.00 785.50,661.00 L 785.00,661.00 L 783.50,661.00 C 782.67,661.00 780.20,660.55 778.00,660.00 L 774.00,659.00 L 772.50,659.00 C 771.67,659.00 768.98,658.33 766.50,657.50 L 762.00,656.00 L 762.00,655.50 C 762.00,655.23 761.10,654.77 760.00,654.50 L 758.00,654.00 L 757.50,654.00 C 757.23,654.00 755.42,653.33 753.50,652.50 L 750.00,651.00 L 750.00,650.50 C 750.00,650.23 749.77,650.00 749.50,650.00 L 749.00,650.00 L 748.50,650.00 C 748.23,650.00 746.42,649.10 744.50,648.00 L 741.00,646.00 L 741.00,645.50 C 741.00,645.23 740.77,645.00 740.50,645.00 L 740.00,645.00 L 739.00,644.50 C 738.45,644.23 737.33,643.55 736.50,643.00 L 735.00,642.00 L 735.00,641.50 C 735.00,641.23 734.77,641.00 734.50,641.00 L 734.00,641.00 L 731.50,639.00 C 730.12,637.90 726.08,634.30 722.50,631.00 L 716.00,625.00 L 716.00,624.50 C 716.00,624.23 715.77,624.00 715.50,624.00 L 715.00,624.00 L 714.00,622.50 C 713.45,621.67 711.42,618.52 709.50,615.50 L 706.00,610.00 L 706.00,609.50 C 706.00,609.23 705.77,609.00 705.50,609.00 L 705.00,609.00 L 702.50,604.00 C 701.12,601.25 698.88,596.08 697.50,592.50 L 695.00,586.00 L 695.00,585.00 L 693.50,579.00 C 692.56,575.24 691.81,565.92 691.50,554.00 L 691.00,535.00 L 691.00,494.00 C 691.00,471.45 691.00,452.77 691.00,452.50 L 691.00,452.00 L 691.00,449.50 C 691.00,448.12 690.55,446.10 690.00,445.00 L 689.00,443.00 L 689.00,442.00 C 689.00,441.45 688.33,439.20 687.50,437.00 L 686.00,433.00 L 686.00,432.50 C 686.00,432.23 685.77,432.00 685.50,432.00 L 685.00,432.00 L 684.00,430.50 C 683.45,429.68 682.55,428.32 682.00,427.50 L 681.00,426.00 L 679.50,424.00 C 678.67,422.90 677.77,422.00 677.50,422.00 L 677.00,422.00 L 671.50,418.00 C 668.48,415.80 663.98,413.55 661.50,413.00 L 657.00,412.00 L 657.00,411.50 C 657.00,411.23 656.55,411.00 656.00,411.00 L 655.00,411.00 L 597.50,411.00 C 538.23,411.00 530.43,411.43 515.50,415.50 L 510.00,417.00 Z M 756.00,479.00 L 756.00,482.00 C 756.00,483.65 756.00,485.23 756.00,485.50 L 756.00,486.00 L 755.50,503.00 C 755.23,512.35 755.23,527.88 755.50,537.50 L 756.00,555.00 L 756.00,558.50 C 756.00,568.43 761.74,580.12 770.00,587.00 L 776.00,592.00 L 778.00,593.50 C 784.51,598.38 790.51,598.97 839.00,599.50 C 864.30,599.77 885.00,599.77 885.00,599.50 C 885.00,599.23 884.10,597.88 883.00,596.50 L 881.00,594.00 L 818.50,532.00 L 756.00,470.00 L 756.00,474.50 L 756.00,479.00 Z" fill-rule="evenodd"/>
	<path fill="#EBEBE927" d="M 418.00,374.00 L 409.50,381.00 C 398.03,390.45 385.59,403.81 376.00,417.00 L 368.00,428.00 L 367.50,427.50 C 366.75,426.75 368.54,423.62 373.50,417.00 C 375.98,413.70 378.90,409.65 380.00,408.00 C 383.77,402.35 409.76,377.12 414.00,375.00 C 415.10,374.45 415.77,373.55 415.50,373.00 C 415.23,372.45 415.68,372.23 416.50,372.50 C 417.32,372.77 418.00,373.23 418.00,373.50 L 418.00,374.00 Z" fill-rule="evenodd"/>
	<path fill="#EEEEEC1A" d="M 655.00,411.00 L 655.00,411.50 C 655.00,411.77 655.45,412.00 656.00,412.00 L 657.00,412.00 L 661.50,413.00 C 663.98,413.55 668.48,415.80 671.50,418.00 L 677.00,422.00 L 676.00,422.00 C 674.05,422.00 670.00,419.98 670.00,419.00 C 670.00,418.45 669.33,418.00 668.50,418.00 C 667.67,418.00 666.55,417.32 666.00,416.50 C 665.45,415.68 663.88,415.00 662.50,415.00 C 661.12,415.00 658.88,414.32 657.50,413.50 C 655.36,412.21 646.94,412.00 598.50,412.00 C 541.18,412.00 533.62,412.24 534.50,414.00 C 534.80,414.59 533.17,415.00 530.50,415.00 C 528.02,415.00 523.30,415.45 520.00,416.00 C 516.70,416.55 513.10,417.00 512.00,417.00 L 510.00,417.00 L 515.50,415.50 C 530.43,411.43 538.23,411.00 597.50,411.00 L 655.00,411.00 Z" fill-rule="evenodd"/>
	<path fill="#EEEEEC1A" d="M 509.00,418.00 L 510.00,418.50 C 510.55,418.77 507.85,419.90 504.00,421.00 C 500.15,422.10 496.10,423.68 495.00,424.50 C 493.90,425.32 491.20,426.68 489.00,427.50 C 486.80,428.32 485.00,429.45 485.00,430.00 C 485.00,430.89 481.66,432.00 479.00,432.00 L 478.00,432.00 L 484.00,428.50 C 487.30,426.57 491.12,424.55 492.50,424.00 L 495.00,423.00 L 495.50,423.00 C 495.77,423.00 496.00,422.77 496.00,422.50 L 496.00,422.00 L 501.50,420.00 C 504.52,418.90 507.45,418.00 508.00,418.00 L 509.00,418.00 Z" fill-rule="evenodd"/>
	<path fill="#EEEEEC1A" d="M 681.00,426.00 L 682.00,427.50 C 682.55,428.32 683.45,429.68 684.00,430.50 L 685.00,432.00 L 685.00,432.50 C 685.00,432.77 685.23,433.00 685.50,433.00 L 686.00,433.00 L 687.50,437.00 C 688.33,439.20 689.00,441.45 689.00,442.00 L 689.00,443.00 L 688.50,444.50 C 688.23,445.32 687.33,443.30 686.50,440.00 C 685.63,436.51 684.16,433.37 683.00,432.50 C 681.90,431.68 681.00,430.55 681.00,430.00 C 681.00,429.45 679.88,427.88 678.50,426.50 C 675.66,423.66 676.01,422.26 679.00,424.50 L 681.00,426.00 Z" fill-rule="evenodd"/>
	<path fill="#EBEBE927" d="M 367.00,429.00 L 363.50,435.00 C 351.31,455.90 342.99,476.28 338.00,497.50 L 336.00,506.00 L 335.50,505.50 C 335.23,505.23 335.68,500.50 336.50,495.00 C 337.36,489.25 338.64,484.36 339.50,483.50 C 340.32,482.68 341.45,479.30 342.00,476.00 C 342.56,472.62 343.44,470.22 344.00,470.50 C 344.55,470.77 345.68,468.30 346.50,465.00 C 347.32,461.70 348.45,458.55 349.00,458.00 C 349.55,457.45 351.35,453.85 353.00,450.00 C 354.65,446.15 356.45,443.00 357.00,443.00 C 357.55,443.00 358.00,442.32 358.00,441.50 C 358.00,440.68 359.57,437.75 361.50,435.00 C 363.43,432.25 365.23,429.55 365.50,429.00 C 365.77,428.45 366.23,428.23 366.50,428.50 L 367.00,429.00 Z" fill-rule="evenodd"/>
	<path fill="#EEEEEC1A" d="M 477.00,433.00 L 475.00,435.00 C 469.45,440.55 468.70,441.22 465.00,444.00 L 461.00,447.00 L 460.50,447.00 C 460.23,447.00 460.00,446.77 460.00,446.50 L 460.00,446.00 L 460.50,446.00 C 460.77,446.00 461.23,445.55 461.50,445.00 L 462.00,444.00 L 469.00,438.50 C 472.85,435.48 476.23,433.00 476.50,433.00 L 477.00,433.00 Z" fill-rule="evenodd"/>
	<path fill="#EAE9E823" d="M 460.00,446.00 L 460.00,446.50 C 460.00,446.77 460.23,447.00 460.50,447.00 L 461.00,447.00 L 457.00,451.00 C 454.80,453.20 452.77,455.00 452.50,455.00 L 452.00,455.00 L 452.00,454.00 L 452.00,453.50 C 452.00,453.23 453.80,451.43 456.00,449.50 L 460.00,446.00 Z" fill-rule="evenodd"/>
	<path fill="#FCFBFB0C" d="M 689.00,449.00 C 689.00,447.90 689.23,447.45 689.50,448.00 C 689.77,448.55 689.77,449.45 689.50,450.00 C 689.23,450.55 689.00,450.10 689.00,449.00 Z" fill-rule="evenodd"/>
	<path fill="#8D908C2E" d="M 691.00,452.00 L 691.00,452.50 C 691.00,452.77 691.00,471.45 691.00,494.00 L 691.00,535.00 L 690.00,535.00 L 690.00,497.00 C 690.00,474.33 689.60,457.79 689.00,456.00 C 688.20,453.60 688.30,452.90 689.50,452.50 L 691.00,452.00 Z" fill-rule="evenodd"/>
	<path fill="#E9E8E627" d="M 452.00,454.00 L 452.00,455.00 L 450.00,458.00 C 448.90,459.65 447.32,461.68 446.50,462.50 C 445.68,463.32 444.32,465.35 443.50,467.00 C 442.23,469.53 440.00,471.13 440.00,469.50 L 440.00,469.00 L 440.00,468.50 C 440.00,468.23 442.70,464.85 446.00,461.00 L 452.00,454.00 Z" fill-rule="evenodd"/>
	<path fill="#E9E8E627" d="M 439.00,470.00 L 439.50,470.50 C 439.77,470.77 439.32,472.35 438.50,474.00 C 437.68,475.65 436.55,477.00 436.00,477.00 L 435.00,477.00 L 435.00,476.50 C 435.00,476.23 435.90,474.65 437.00,473.00 L 439.00,470.00 Z" fill-rule="evenodd"/>
	<path fill="#E7E7E51F" d="M 881.00,594.00 L 881.00,594.50 C 881.00,594.77 880.33,595.00 879.50,595.00 L 878.00,595.00 L 873.50,589.50 C 871.02,586.48 868.77,583.55 868.50,583.00 C 868.23,582.45 867.33,582.00 866.50,582.00 C 865.67,582.00 864.55,580.88 864.00,579.50 C 863.45,578.12 862.77,577.23 862.50,577.50 C 861.97,578.03 840.90,557.21 820.50,536.00 C 813.62,528.85 797.42,512.88 784.50,500.50 L 761.00,478.00 L 759.00,478.00 C 757.90,478.00 756.77,478.23 756.50,478.50 L 756.00,479.00 L 756.00,474.50 L 756.00,470.00 L 818.50,532.00 L 881.00,594.00 Z" fill-rule="evenodd"/>
	<path fill="#C0BFBE2E" d="M 435.00,477.00 L 431.50,485.00 C 429.57,489.40 427.55,494.35 427.00,496.00 C 426.45,497.65 425.55,499.45 425.00,500.00 C 423.63,501.37 420.00,516.24 420.00,520.50 C 420.00,522.42 419.55,524.23 419.00,524.50 C 416.73,525.64 416.02,555.54 416.50,629.50 L 417.00,706.00 L 417.00,706.50 C 417.00,706.77 417.00,707.45 417.00,708.00 L 417.00,709.00 L 416.00,707.00 C 415.36,705.71 415.00,674.33 415.00,619.00 L 415.00,533.00 L 417.50,520.50 C 420.35,506.26 425.23,492.87 431.00,483.50 L 435.00,477.00 Z" fill-rule="evenodd"/>
	<path fill="#CBCAC932" d="M 336.00,509.00 L 335.00,513.00 C 334.45,515.20 333.77,524.42 333.50,533.50 L 333.00,550.00 L 332.50,551.50 C 332.23,552.33 332.23,553.67 332.50,554.50 L 333.00,556.00 L 333.00,635.00 C 333.00,682.00 333.41,717.04 334.00,721.50 L 335.00,729.00 L 335.00,729.50 C 335.00,729.77 335.23,730.00 335.50,730.00 L 336.00,730.00 L 338.00,738.00 C 339.10,742.40 341.57,749.38 343.50,753.50 L 347.00,761.00 L 346.00,761.50 C 345.45,761.77 345.00,761.33 345.00,760.50 C 345.00,759.67 344.55,759.00 344.00,759.00 C 343.45,759.00 342.32,756.52 341.50,753.50 C 340.68,750.48 339.55,748.00 339.00,748.00 C 338.05,748.00 337.22,745.09 335.00,734.00 C 334.45,731.25 333.77,728.55 333.50,728.00 C 331.55,724.09 331.00,700.37 331.00,619.50 C 331.00,565.50 331.40,525.57 332.00,520.50 C 332.55,515.83 333.00,510.88 333.00,509.50 C 333.00,506.80 333.46,506.46 335.00,508.00 L 336.00,509.00 Z" fill-rule="evenodd"/>
	<path fill="#BABAB928" d="M 690.00,535.00 L 691.00,535.00 L 691.50,554.00 C 691.81,565.92 692.56,575.24 693.50,579.00 L 695.00,585.00 L 694.00,586.00 C 692.05,587.95 690.00,570.75 690.00,552.50 L 690.00,535.00 Z" fill-rule="evenodd"/>
	<path fill="#9E9C9B9A" d="M 333.00,550.00 L 333.00,550.50 C 333.00,550.77 333.00,552.12 333.00,553.50 L 333.00,556.00 L 332.50,554.50 C 332.23,553.67 332.23,552.33 332.50,551.50 L 333.00,550.00 Z" fill-rule="evenodd"/>
	<path fill="#F0F0EE1F" d="M 777.00,592.00 L 776.00,592.00 L 770.00,587.00 C 761.74,580.12 756.00,568.43 756.00,558.50 L 756.00,555.00 L 756.00,553.00 C 756.00,549.70 757.90,556.36 759.00,563.50 C 760.56,573.64 765.59,582.39 772.50,587.00 C 773.33,587.55 774.67,588.90 775.50,590.00 L 777.00,592.00 Z" fill-rule="evenodd"/>
	<path fill="#D8D8D625" d="M 948.00,568.00 L 950.50,571.50 C 951.88,573.42 953.67,575.67 954.50,576.50 C 955.33,577.33 956.00,578.45 956.00,579.00 C 956.00,579.55 956.90,580.90 958.00,582.00 C 960.18,584.18 966.42,596.97 968.00,602.50 C 968.55,604.42 969.45,606.00 970.00,606.00 C 970.55,606.00 971.90,610.27 973.00,615.50 C 974.10,620.73 975.45,625.90 976.00,627.00 C 976.55,628.10 977.45,635.52 978.00,643.50 C 979.29,662.25 979.29,804.61 978.00,824.00 C 977.04,838.35 972.80,859.30 970.00,863.50 C 969.45,864.33 968.10,867.70 967.00,871.00 C 965.90,874.30 964.33,877.67 963.50,878.50 C 962.67,879.33 961.55,881.35 961.00,883.00 C 960.18,885.46 958.00,887.28 958.00,885.50 L 958.00,885.00 L 962.50,876.50 C 967.16,867.70 971.93,853.97 974.50,842.00 C 975.75,836.17 976.08,819.66 976.50,743.50 C 977.06,641.50 976.81,635.20 971.50,617.00 C 967.14,602.04 961.81,590.64 953.50,578.50 L 947.00,569.00 L 947.50,569.00 C 947.77,569.00 948.00,568.77 948.00,568.50 L 948.00,568.00 Z" fill-rule="evenodd"/>
	<path fill="#DDDCDB26" d="M 695.00,586.00 L 697.50,592.50 C 698.88,596.08 701.12,601.25 702.50,604.00 L 705.00,609.00 L 704.50,609.50 C 703.51,610.49 696.97,597.40 695.00,590.50 C 694.45,588.58 694.23,586.77 694.50,586.50 L 695.00,586.00 Z" fill-rule="evenodd"/>
	<path fill="#D9D8D52F" d="M 776.00,592.00 L 777.00,592.00 L 780.00,592.50 C 781.65,592.77 784.80,593.90 787.00,595.00 C 790.81,596.91 793.00,597.00 833.50,597.00 C 860.50,597.00 876.36,596.64 877.00,596.00 L 878.00,595.00 L 879.50,595.00 C 880.33,595.00 881.00,594.77 881.00,594.50 L 881.00,594.00 L 883.00,596.50 C 884.10,597.88 885.00,599.23 885.00,599.50 C 885.00,599.77 864.30,599.77 839.00,599.50 C 790.51,598.97 784.51,598.38 778.00,593.50 L 776.00,592.00 Z" fill-rule="evenodd"/>
	<path fill="#DDDCDB26" d="M 706.00,610.00 L 709.50,615.50 C 711.42,618.52 713.45,621.67 714.00,622.50 L 715.00,624.00 L 714.00,624.00 C 713.45,624.00 712.10,622.42 711.00,620.50 C 709.90,618.58 708.10,615.88 707.00,614.50 C 705.90,613.12 705.23,611.55 705.50,611.00 L 706.00,610.00 Z" fill-rule="evenodd"/>
	<path fill="#DADAD822" d="M 716.00,625.00 L 722.50,631.00 C 726.08,634.30 730.12,637.90 731.50,639.00 L 734.00,641.00 L 734.00,641.50 C 734.00,641.77 734.23,642.00 734.50,642.00 L 735.00,642.00 L 736.50,643.00 C 737.33,643.55 738.45,644.23 739.00,644.50 L 740.00,645.00 L 740.00,645.50 C 740.00,645.77 740.23,646.00 740.50,646.00 L 741.00,646.00 L 744.50,648.00 C 746.42,649.10 748.23,650.00 748.50,650.00 L 749.00,650.00 L 749.00,650.50 C 749.00,650.77 749.23,651.00 749.50,651.00 L 750.00,651.00 L 753.50,652.50 C 755.42,653.33 757.23,654.00 757.50,654.00 L 758.00,654.00 L 758.50,654.50 C 759.64,655.64 758.81,655.97 756.00,655.50 C 754.35,655.23 752.55,654.33 752.00,653.50 C 751.45,652.67 749.20,651.55 747.00,651.00 C 744.80,650.45 742.33,649.33 741.50,648.50 C 739.06,646.06 735.24,643.15 731.00,640.50 C 726.55,637.72 714.73,626.27 715.50,625.50 L 716.00,625.00 Z" fill-rule="evenodd"/>
	<path fill="#DBDEDA12" d="M 762.00,656.00 L 766.50,657.50 C 768.98,658.33 771.67,659.00 772.50,659.00 L 774.00,659.00 L 774.50,659.50 C 774.77,659.77 775.00,660.23 775.00,660.50 L 775.00,661.00 L 774.00,661.00 C 771.46,661.00 766.67,659.86 763.50,658.50 C 760.07,657.03 759.04,656.00 761.00,656.00 L 762.00,656.00 Z" fill-rule="evenodd"/>
	<path fill="#ADAFAB22" d="M 774.00,659.00 L 778.00,660.00 C 780.20,660.55 782.67,661.00 783.50,661.00 L 785.00,661.00 L 783.50,661.50 C 782.67,661.77 780.42,661.77 778.50,661.50 L 775.00,661.00 L 775.00,660.50 C 775.00,660.23 774.77,659.77 774.50,659.50 L 774.00,659.00 Z" fill-rule="evenodd"/>
	<path fill="#B3B3B13E" d="M 787.00,661.00 L 812.00,661.50 C 825.75,661.77 839.25,662.23 842.00,662.50 L 847.00,663.00 L 844.50,663.00 C 843.12,663.00 842.00,663.23 842.00,663.50 L 842.00,664.00 L 814.50,663.50 C 788.89,663.03 785.23,662.77 786.50,661.50 L 787.00,661.00 Z" fill-rule="evenodd"/>
	<path fill="#E7E7E51E" d="M 847.00,663.00 L 856.00,664.00 C 865.62,665.07 876.93,669.29 885.50,675.00 L 890.00,678.00 L 890.00,678.50 C 890.00,678.77 890.45,679.23 891.00,679.50 L 892.00,680.00 L 892.50,680.00 C 892.77,680.00 893.23,680.45 893.50,681.00 L 894.00,682.00 L 893.50,681.50 C 893.23,681.23 892.77,681.00 892.50,681.00 L 892.00,681.00 L 885.00,676.50 C 881.15,674.02 876.88,671.77 875.50,671.50 C 874.12,671.23 872.77,670.55 872.50,670.00 C 871.53,668.05 862.01,666.00 847.00,664.50 L 842.00,664.00 L 842.00,663.50 C 842.00,663.23 843.12,663.00 844.50,663.00 L 847.00,663.00 Z" fill-rule="evenodd"/>
	<path fill="#EBEAE827" d="M 892.00,681.00 L 892.50,681.00 C 892.77,681.00 893.23,681.23 893.50,681.50 L 894.00,682.00 L 895.50,683.00 C 896.33,683.55 897.00,684.23 897.00,684.50 L 897.00,685.00 L 897.00,685.50 C 897.00,685.77 897.23,686.00 897.50,686.00 L 898.00,686.00 L 901.00,690.50 C 910.59,704.88 911.11,709.27 910.50,771.00 L 910.00,822.00 L 907.50,828.50 C 906.12,832.08 903.65,837.25 902.00,840.00 C 881.15,874.76 813.12,859.71 746.00,805.50 C 698.89,767.45 689.26,760.49 668.50,749.50 C 634.11,731.29 603.65,724.00 562.00,724.00 C 527.86,724.00 515.33,725.91 476.50,737.00 C 468.54,739.27 463.94,740.00 457.50,740.00 C 438.96,740.00 421.82,728.29 418.00,713.00 L 417.00,709.00 L 417.00,708.00 C 417.00,707.45 417.00,706.77 417.00,706.50 L 417.00,706.00 L 417.50,707.50 C 417.77,708.33 418.45,709.00 419.00,709.00 C 419.55,709.00 420.00,709.90 420.00,711.00 C 420.00,714.15 422.90,721.05 424.00,720.50 C 424.55,720.23 424.77,720.67 424.50,721.50 C 424.20,722.41 425.76,724.56 428.50,727.00 C 430.98,729.20 433.68,731.00 434.50,731.00 C 435.32,731.00 435.77,731.45 435.50,732.00 C 435.04,732.93 438.64,734.33 444.50,735.50 C 445.88,735.77 447.45,736.45 448.00,737.00 C 448.55,737.55 453.05,738.00 458.00,738.00 C 463.00,738.00 467.22,737.56 467.50,737.00 C 467.77,736.45 468.90,736.00 470.00,736.00 C 473.24,736.00 484.92,733.08 486.00,732.00 C 486.55,731.45 492.62,729.88 499.50,728.50 C 537.77,720.85 570.52,719.39 600.50,724.00 C 604.08,724.55 608.80,725.23 611.00,725.50 C 613.20,725.77 615.45,726.45 616.00,727.00 C 616.55,727.55 619.48,728.45 622.50,729.00 C 625.52,729.55 629.58,730.67 631.50,731.50 C 633.42,732.33 637.25,733.67 640.00,734.50 C 642.75,735.33 646.12,736.67 647.50,737.50 C 648.88,738.33 651.80,739.45 654.00,740.00 C 656.20,740.55 658.90,741.90 660.00,743.00 C 661.10,744.10 662.90,745.00 664.00,745.00 C 665.10,745.00 667.12,745.90 668.50,747.00 C 671.36,749.29 675.90,751.95 683.00,755.50 C 685.75,756.88 689.58,759.35 691.50,761.00 C 693.42,762.65 696.80,765.12 699.00,766.50 C 701.20,767.88 704.35,770.12 706.00,771.50 C 707.65,772.88 710.12,774.67 711.50,775.50 C 712.88,776.33 715.58,778.58 717.50,780.50 C 719.42,782.42 721.90,784.23 723.00,784.50 C 724.10,784.77 724.77,785.45 724.50,786.00 C 724.23,786.55 725.58,787.67 727.50,788.50 C 729.42,789.33 731.00,790.45 731.00,791.00 C 731.00,792.00 738.43,798.29 744.00,802.00 C 745.65,803.10 749.25,805.80 752.00,808.00 C 754.75,810.20 758.12,812.67 759.50,813.50 C 760.88,814.33 763.58,816.35 765.50,818.00 C 767.42,819.65 770.35,821.45 772.00,822.00 C 773.65,822.55 775.00,823.45 775.00,824.00 C 775.00,824.55 776.80,825.90 779.00,827.00 C 781.20,828.10 783.45,829.45 784.00,830.00 C 784.55,830.55 788.83,833.02 793.50,835.50 C 798.17,837.98 802.90,840.67 804.00,841.50 C 805.10,842.33 806.90,843.00 808.00,843.00 C 809.10,843.00 812.02,844.12 814.50,845.50 C 816.98,846.88 820.58,848.23 822.50,848.50 C 824.42,848.77 827.12,849.67 828.50,850.50 C 831.12,852.07 834.93,853.05 848.00,855.50 C 859.46,857.65 885.67,854.66 887.50,851.00 C 887.77,850.45 889.58,849.33 891.50,848.50 C 895.01,847.00 902.52,837.92 903.50,834.00 C 903.77,832.90 904.67,830.88 905.50,829.50 C 908.31,824.81 909.00,815.86 909.00,784.00 C 909.00,719.42 908.98,717.88 908.00,712.50 C 906.72,705.45 903.28,696.00 902.00,696.00 C 901.45,696.00 901.23,695.55 901.50,695.00 C 901.77,694.45 901.33,693.33 900.50,692.50 C 899.67,691.67 898.55,690.10 898.00,689.00 C 897.45,687.90 895.88,685.65 894.50,684.00 L 892.00,681.00 Z" fill-rule="evenodd"/>
	<path fill="#EBEAE827" d="M 647.00,736.50 C 647.00,736.23 647.23,736.23 647.50,736.50 C 647.77,736.77 647.77,737.00 647.50,737.00 C 647.23,737.00 647.00,736.77 647.00,736.50 Z" fill-rule="evenodd"/>
	<path fill="#F0F0EF12" d="M 348.00,763.00 L 348.50,763.50 C 348.77,763.77 349.45,764.90 350.00,766.00 L 351.00,768.00 L 350.00,768.50 C 349.45,768.77 348.32,767.65 347.50,766.00 C 346.67,764.33 346.44,763.00 347.00,763.00 L 348.00,763.00 Z" fill-rule="evenodd"/>
	<path fill="#E8E7E61D" d="M 352.00,769.00 L 353.00,770.50 C 353.55,771.33 354.90,773.35 356.00,775.00 L 358.00,778.00 L 358.00,778.50 C 358.00,778.77 358.23,779.00 358.50,779.00 L 359.00,779.00 L 360.00,780.50 C 360.55,781.33 361.23,782.23 361.50,782.50 L 362.00,783.00 L 362.00,783.50 C 362.00,783.77 362.45,784.23 363.00,784.50 L 364.00,785.00 L 366.00,787.00 C 367.10,788.10 368.90,789.90 370.00,791.00 L 372.00,793.00 L 372.00,793.50 C 372.00,793.77 372.45,794.23 373.00,794.50 L 374.00,795.00 L 374.00,795.50 C 374.00,795.77 373.77,796.00 373.50,796.00 L 373.00,796.00 L 365.50,788.50 C 356.21,779.21 350.09,770.91 351.50,769.50 L 352.00,769.00 Z" fill-rule="evenodd"/>
	<path fill="#DEDFDD1C" d="M 374.00,795.00 L 374.50,795.00 C 374.77,795.00 375.45,795.45 376.00,796.00 L 377.00,797.00 L 377.00,797.50 C 377.00,797.77 377.23,798.00 377.50,798.00 L 378.00,798.00 L 384.50,802.50 C 393.07,808.43 408.45,815.64 416.50,817.50 L 423.00,819.00 L 423.50,821.00 C 423.77,822.10 423.55,823.00 423.00,823.00 C 422.45,823.00 421.77,822.33 421.50,821.50 C 421.18,820.53 418.72,819.65 414.50,819.00 C 410.93,818.45 408.00,817.55 408.00,817.00 C 408.00,816.45 405.75,815.33 403.00,814.50 C 400.25,813.67 396.20,811.88 394.00,810.50 C 391.80,809.12 389.32,807.77 388.50,807.50 C 387.68,807.23 385.20,805.42 383.00,803.50 C 380.80,801.58 377.65,799.10 376.00,798.00 L 373.00,796.00 L 373.50,796.00 C 373.77,796.00 374.00,795.77 374.00,795.50 L 374.00,795.00 Z" fill-rule="evenodd"/>
	<path fill="#ACABAA28" d="M 582.00,804.00 L 581.50,804.00 C 581.23,804.00 580.55,804.00 580.00,804.00 L 579.00,804.00 L 565.50,804.00 C 558.08,804.00 551.77,803.77 551.50,803.50 L 551.00,803.00 L 558.50,802.50 C 562.62,802.23 569.60,802.45 574.00,803.00 L 582.00,804.00 Z" fill-rule="evenodd"/>
	<path fill="#E8E7E61C" d="M 540.00,804.00 L 540.50,804.00 C 540.77,804.00 542.58,804.00 544.50,804.00 L 548.00,804.00 L 545.00,804.50 C 543.35,804.77 540.42,805.67 538.50,806.50 C 536.58,807.33 533.20,808.00 531.00,808.00 C 525.85,808.00 512.29,810.71 511.00,812.00 C 510.45,812.55 507.30,813.45 504.00,814.00 C 500.70,814.55 497.77,814.77 497.50,814.50 L 497.00,814.00 L 509.50,810.50 C 516.38,808.58 525.83,806.55 530.50,806.00 L 539.00,805.00 L 539.50,805.00 C 539.77,805.00 540.00,804.77 540.00,804.50 L 540.00,804.00 Z" fill-rule="evenodd"/>
	<path fill="#DFE0DE1A" d="M 579.00,804.00 L 580.00,804.00 C 580.55,804.00 581.23,804.00 581.50,804.00 L 582.00,804.00 L 582.50,804.00 C 582.77,804.00 584.12,804.00 585.50,804.00 L 588.00,804.00 L 588.00,804.50 C 588.00,804.77 588.45,805.00 589.00,805.00 L 590.00,805.00 L 592.00,805.00 C 593.10,805.00 596.70,805.67 600.00,806.50 L 606.00,808.00 L 605.50,808.50 C 604.87,809.13 592.98,807.33 589.00,806.00 C 587.35,805.45 584.42,804.77 582.50,804.50 L 579.00,804.00 Z" fill-rule="evenodd"/>
	<path fill="#DEDDDB1D" d="M 609.00,809.00 L 610.00,809.00 L 609.00,809.50 C 608.45,809.77 608.23,809.77 608.50,809.50 L 609.00,809.00 Z" fill-rule="evenodd"/>
	<path fill="#DAD9D72E" d="M 613.00,810.00 L 614.00,810.00 C 614.55,810.00 615.00,810.23 615.00,810.50 L 615.00,811.00 L 613.00,810.50 C 611.90,810.23 611.45,810.00 612.00,810.00 L 613.00,810.00 Z" fill-rule="evenodd"/>
	<path fill="#E0E0DE1C" d="M 615.00,811.00 L 618.00,811.50 C 621.80,812.13 630.59,815.79 642.00,821.50 L 651.00,826.00 L 651.00,826.50 C 651.00,826.77 651.23,827.00 651.50,827.00 L 652.00,827.00 L 654.00,828.00 C 655.10,828.55 658.70,830.80 662.00,833.00 L 668.00,837.00 L 668.00,837.50 C 668.00,837.77 668.23,838.00 668.50,838.00 L 669.00,838.00 L 670.00,838.50 C 670.55,838.77 671.90,839.67 673.00,840.50 L 675.00,842.00 L 675.00,842.50 C 675.00,842.77 675.23,843.00 675.50,843.00 L 676.00,843.00 L 676.50,843.50 C 676.77,843.77 677.00,844.45 677.00,845.00 L 677.00,846.00 L 675.50,844.50 C 674.67,843.67 671.30,841.20 668.00,839.00 C 664.70,836.80 661.33,834.33 660.50,833.50 C 659.67,832.67 658.55,832.00 658.00,832.00 C 657.45,832.00 655.42,830.88 653.50,829.50 C 648.39,825.85 630.16,816.92 629.00,817.50 C 628.45,817.77 628.00,817.55 628.00,817.00 C 628.00,816.45 627.33,816.00 626.50,816.00 C 625.67,816.00 623.88,815.33 622.50,814.50 C 621.12,813.67 618.88,813.00 617.50,813.00 C 616.12,813.00 615.00,812.55 615.00,812.00 L 615.00,811.00 Z" fill-rule="evenodd"/>
	<path fill="#E6E7E51A" d="M 496.00,814.00 L 495.50,816.00 C 495.17,817.33 494.17,818.00 492.50,818.00 C 491.12,818.00 487.30,818.67 484.00,819.50 C 480.70,820.33 477.10,820.77 476.00,820.50 L 474.00,820.00 L 483.00,818.00 C 487.95,816.90 492.90,815.55 494.00,815.00 L 496.00,814.00 Z" fill-rule="evenodd"/>
	<path fill="#E6E7E51A" d="M 428.00,821.00 L 438.50,822.00 C 445.50,822.67 453.00,822.67 461.00,822.00 L 473.00,821.00 L 473.50,822.00 C 473.78,822.56 472.67,823.00 471.00,823.00 C 469.35,823.00 463.27,823.45 457.50,824.00 C 450.50,824.67 444.17,824.67 438.50,824.00 C 433.82,823.45 429.10,823.00 428.00,823.00 C 426.90,823.00 426.00,822.55 426.00,822.00 C 426.00,821.45 426.45,821.00 427.00,821.00 L 428.00,821.00 Z" fill-rule="evenodd"/>
	<path fill="#F3F3DF3C" d="M 366.50,841.50 C 371.32,839.89 388.70,842.69 394.50,846.00 C 405.55,852.32 415.52,867.27 416.50,879.00 C 417.09,886.14 415.41,901.00 414.00,901.00 C 413.45,901.00 412.32,903.02 411.50,905.50 C 409.61,911.16 399.50,921.57 394.50,923.00 C 392.57,923.55 391.00,924.45 391.00,925.00 C 391.00,926.83 382.07,928.00 372.00,927.50 C 355.78,926.69 338.97,916.88 336.00,906.50 C 335.45,904.58 334.55,903.23 334.00,903.50 C 333.44,903.78 332.56,901.56 332.00,898.50 C 330.04,887.74 331.36,867.00 334.00,867.00 C 334.55,867.00 335.68,865.20 336.50,863.00 C 337.32,860.80 338.45,859.00 339.00,859.00 C 339.55,859.00 340.68,857.65 341.50,856.00 C 342.32,854.35 344.57,852.10 346.50,851.00 C 348.43,849.90 351.35,847.88 353.00,846.50 C 354.65,845.12 358.02,843.55 360.50,843.00 C 362.98,842.45 365.68,841.77 366.50,841.50 Z M 377.60,843.13 C 400.30,845.27 416.94,865.64 414.77,888.63 C 412.60,911.61 392.44,928.50 369.73,926.35 C 347.03,924.21 330.39,903.84 332.56,880.86 C 334.73,857.88 354.89,840.98 377.60,843.13 Z" fill-rule="evenodd"/>
	<path fill="#C9D427" d="M 377.60,843.13 C 354.89,840.98 334.73,857.88 332.56,880.86 C 330.39,903.84 347.03,924.21 369.73,926.35 C 392.44,928.50 412.60,911.61 414.77,888.63 C 416.94,865.64 400.30,845.27 377.60,843.13 Z" fill-rule="evenodd"/>
	<path fill="#E1E0DF20" d="M 676.00,843.00 L 677.50,844.00 C 678.33,844.55 679.23,845.23 679.50,845.50 L 680.00,846.00 L 680.00,846.50 C 680.00,846.77 680.23,847.00 680.50,847.00 L 681.00,847.00 L 683.00,848.50 C 684.10,849.33 685.67,850.45 686.50,851.00 L 688.00,852.00 L 688.00,852.50 C 688.00,852.77 688.45,853.23 689.00,853.50 L 690.00,854.00 L 690.00,854.50 C 690.00,854.77 689.77,855.00 689.50,855.00 L 689.00,855.00 L 686.50,853.00 C 685.12,851.90 683.33,850.33 682.50,849.50 C 681.67,848.67 680.10,847.55 679.00,847.00 L 677.00,846.00 L 677.00,845.00 C 677.00,844.45 676.77,843.77 676.50,843.50 L 676.00,843.00 Z" fill-rule="evenodd"/>
	<path fill="#D8D8D625" d="M 690.00,854.00 L 691.50,855.00 C 692.33,855.55 693.23,856.23 693.50,856.50 L 694.00,857.00 L 694.00,857.50 C 694.00,857.77 694.45,858.23 695.00,858.50 L 696.00,859.00 L 697.50,860.00 C 698.33,860.55 701.48,863.02 704.50,865.50 L 710.00,870.00 L 709.50,870.50 C 709.23,870.77 706.52,868.98 703.50,866.50 C 700.48,864.02 696.65,861.10 695.00,860.00 C 693.35,858.90 691.33,857.33 690.50,856.50 L 689.00,855.00 L 689.50,855.00 C 689.77,855.00 690.00,854.77 690.00,854.50 L 690.00,854.00 Z" fill-rule="evenodd"/>
	<path fill="#D8D8D625" d="M 711.00,871.00 L 712.50,871.50 C 713.33,871.77 714.00,872.23 714.00,872.50 L 714.00,873.00 L 713.00,873.50 C 712.45,873.77 711.55,873.55 711.00,873.00 C 710.45,872.45 710.23,871.77 710.50,871.50 L 711.00,871.00 Z" fill-rule="evenodd"/>
	<path fill="#D8D8D625" d="M 715.00,874.00 L 716.00,875.00 C 716.55,875.55 717.23,876.00 717.50,876.00 L 718.00,876.00 L 717.00,877.00 C 716.33,877.67 715.67,877.67 715.00,877.00 C 714.45,876.45 714.23,875.55 714.50,875.00 L 715.00,874.00 Z" fill-rule="evenodd"/>
	<path fill="#D8D8D625" d="M 719.00,877.00 L 720.00,878.00 C 720.55,878.55 721.23,879.00 721.50,879.00 L 722.00,879.00 L 722.00,879.50 C 722.00,879.77 722.23,880.00 722.50,880.00 L 723.00,880.00 L 724.50,881.00 C 725.33,881.55 726.67,882.45 727.50,883.00 L 729.00,884.00 L 729.00,884.50 C 729.00,884.77 729.45,885.23 730.00,885.50 L 731.00,886.00 L 731.50,886.00 C 731.77,886.00 732.23,886.23 732.50,886.50 L 733.00,887.00 L 733.00,887.50 C 733.00,887.77 733.23,888.00 733.50,888.00 L 734.00,888.00 L 735.00,888.50 C 735.55,888.77 736.67,889.45 737.50,890.00 L 739.00,891.00 L 739.00,891.50 C 739.00,891.77 739.23,892.00 739.50,892.00 L 740.00,892.00 L 741.50,893.00 C 742.33,893.55 744.12,894.67 745.50,895.50 L 748.00,897.00 L 747.50,897.50 C 746.73,898.27 741.37,895.32 737.50,892.00 C 735.58,890.35 732.20,887.88 730.00,886.50 C 727.80,885.12 724.65,882.88 723.00,881.50 C 721.35,880.12 719.55,878.77 719.00,878.50 C 718.45,878.23 718.23,877.77 718.50,877.50 L 719.00,877.00 Z" fill-rule="evenodd"/>
	<path fill="#D8D8D625" d="M 957.00,886.00 L 957.50,886.50 C 957.77,886.77 957.33,888.35 956.50,890.00 C 955.16,892.68 952.84,895.00 951.50,895.00 L 951.00,895.00 L 952.00,893.50 C 952.55,892.67 953.90,890.65 955.00,889.00 L 957.00,886.00 Z" fill-rule="evenodd"/>
	<path fill="#D8D8D625" d="M 950.00,896.00 L 950.00,897.00 C 950.00,897.55 948.20,900.02 946.00,902.50 C 934.30,915.66 910.89,928.90 896.50,930.50 C 894.02,930.77 891.33,931.45 890.50,932.00 C 889.67,932.55 885.17,933.23 880.50,933.50 C 875.83,933.77 871.55,934.45 871.00,935.00 C 870.33,935.67 867.67,935.67 863.00,935.00 C 859.15,934.45 851.50,933.55 846.00,933.00 C 827.34,931.13 801.62,925.31 793.00,921.00 C 790.26,919.63 778.43,915.11 776.00,914.50 C 774.90,914.23 774.00,913.55 774.00,913.00 C 774.00,912.45 772.65,911.77 771.00,911.50 C 769.35,911.23 768.00,910.55 768.00,910.00 C 768.00,909.45 768.23,909.00 768.50,909.00 L 769.00,909.00 L 777.00,912.50 C 795.22,920.47 808.84,925.17 820.50,927.50 L 828.00,929.00 L 828.00,929.50 C 828.00,929.77 828.45,930.00 829.00,930.00 L 830.00,930.00 L 830.50,930.00 C 830.77,930.00 831.90,930.00 833.00,930.00 L 835.00,930.00 L 835.00,930.50 C 835.00,930.77 835.23,931.00 835.50,931.00 L 836.00,931.00 L 850.50,932.00 C 858.48,932.55 866.35,932.77 868.00,932.50 C 869.65,932.23 875.27,931.77 880.50,931.50 L 890.00,931.00 L 890.50,931.00 C 890.77,931.00 891.00,930.77 891.00,930.50 L 891.00,930.00 L 899.00,928.00 C 916.00,923.75 930.31,915.69 942.50,903.50 L 950.00,896.00 Z" fill-rule="evenodd"/>
	<path fill="#D8D8D625" d="M 749.00,898.00 L 751.00,899.00 C 752.10,899.55 753.90,900.45 755.00,901.00 L 757.00,902.00 L 757.00,902.50 C 757.00,902.77 757.23,903.00 757.50,903.00 L 758.00,903.00 L 759.00,903.50 C 759.55,903.77 760.90,904.45 762.00,905.00 L 764.00,906.00 L 764.00,906.50 C 764.00,906.77 764.23,907.00 764.50,907.00 L 765.00,907.00 L 766.00,907.00 C 766.55,907.00 767.23,907.23 767.50,907.50 L 768.00,908.00 L 767.50,908.50 C 767.23,908.77 765.42,908.33 763.50,907.50 C 761.58,906.67 759.55,906.00 759.00,906.00 C 758.45,906.00 758.00,905.55 758.00,905.00 C 758.00,904.45 755.75,903.10 753.00,902.00 C 748.96,900.38 746.28,898.00 748.50,898.00 L 749.00,898.00 Z" fill-rule="evenodd"/>
</svg>
